<svg xmlns="http://www.w3.org/2000/svg" xmlns:xlink="http://www.w3.org/1999/xlink" viewBox="0 0 479.95 227.95">
  <g class="interactive_g" id="rubber" style="isolation: isolate">
    <path d="M407.23,84.38c3.76-.52,6.19-.59,9.94-.86a10.9,10.9,0,0,1,3.89.14c1.73-.43.82,4.77,1.44,8.21.14.77.72,2.11.86,2.88-.53.72-1.13.67-2,.87a11.51,11.51,0,0,1-3.74.57c-.48.39-1.39.19-1.87.58-.87,0-1.3.57-2.16.57-2.25.65-5.26,1.51-7.92,2.31-1.72.52-5.57,1.79-7.63,1-1-.94-2.12-11.52-1.73-14.4C399.22,85.1,403.39,85,407.23,84.38Z" fill-rule="evenodd"/>
    <path d="M379.3,147.46h37.87c4.24,0,12-1,14.69.86a40,40,0,0,1,.43,10.08c-.34,5.15.29,14.49-1,15.7-.75.7-11.6.14-17.65.34-14.84.48-29.58.63-44,.66-3.74,0-19.09.69-19.3,0-.82-2.68,0-15.45-.29-20.3a14.74,14.74,0,0,1,.44-4.75c.94-1.86,1.46-1.28,3.88-1.73,3.11-.58,7.32.65,10.8,0a29.81,29.81,0,0,1,5.48-.29C373.13,148,377.4,148.37,379.3,147.46Z" fill-rule="evenodd"/>
  </g>
  <g class="interactive_g" id="tongue" style="isolation: isolate">
    <path d="M300,16.56c.05-.48,4.56-1.54,4.61-2,2.37-5.16,11-8.13,15.55-12.09,1.22-1.07,1.49-1.25,4.32-2,1.14,1,1.59,2.07,2.31,2.74.4,1.61,1.26,1.91,2.3,2.88,3.57-.25,4.3-3.32,6.91-4.18,2.28-.74,3.16-.24,5.19-.43,2.85,1.64,2.51,5.79,4.6,8.5,3.86,5,9.39,20.36,6.77,32.4-1.11,5.13-3.84,4.35-5.33,11.52C346,55,342.1,52.14,339.7,50.54c-1.4-.76-3.94-3.84-5.33-4.6-4-4-7.35-7.2-11.38-11.24-1.67-2.41-2.11-2.8-4.17-5.47-.82-1.11-3.36-3.6-4.32-3.89-1.31-1.07-1.64-1.17-3.17-2.44a31.49,31.49,0,0,0-3.46-2.31A65,65,0,0,0,300,16.56Z" fill-rule="evenodd"/>
  </g>
  <g class="interactive_g" id="lining" style="isolation: isolate">
    <path d="M295.06,15.84c2.54.1,3.14,0,5.18.86,1.61.84,3.31,1.19,4.75,2.31a94.28,94.28,0,0,1,9.22,6.19A33.36,33.36,0,0,1,318,28.37c2.26,2.19,3.27,4.2,5.33,6.62l7.78,7.49C334,45.38,343,54.48,347,54.06c.49-.54.73-2.49,1.39-3.08a50.09,50.09,0,0,0,11.37,5.18c8.78,2.37,23.43,3,32.83.86A52.7,52.7,0,0,0,400,54.29c5.73-2.25,11.86-3.61,17.28-6,4.66-2.1,9.32-2.41,12.82-5.47,3.81-3.34,6.84-8.39,9.5-12.82,1.17-1.95,1.57-3.87,3.17-5.33,2.36-2.14,7.71-4.63,14.4-3.74,1.77.18,2.71,2.73,2.45,3.31-4.2,1.38-8.41,4.32-9.65,6.34a27,27,0,0,0-3,6.19,43.09,43.09,0,0,1-1.88,5.62c-1.78,3.17-2.76,5.87-5.47,8.35-4.45,4.06-11,6.18-18,8.78-1.72.78-6.86,3.12-7.63,3.89-2.38-.22-3.28.54-5.9,1.44-2.93,1-6.74,1.72-9.94,2.45-2.4.19-5.23,1.1-7.63,1.29-2.55.64-7.22.3-10.95,0-8.91-.71-23-4.32-31.68-9.36-1.4-.81-5.55-2.72-7.48-3.74-.73-.38-6.31-6.29-10.37-9.5-5.93-4.7-5.57-4.07-11.52-8.64-.77-.6-5.61-5.69-6.34-6.34-.4-1.25-3.15-3.18-4.61-4a48.7,48.7,0,0,0-7.92-5.76c-3.07-1.65-5.86-3.55-9.5-4.18C290.18,15.7,294.83,15.78,295.06,15.84Z" fill-rule="evenodd"/>
  </g>
  <g class="interactive_g" id="heelnotch" style="isolation: isolate">
    <path d="M459.65,23.9c1.66,1.91,3.7,4.28,4.61,6.92,1.71,5,1.82,10.79,2.88,16.12,0,1.06.14,2.4.14,3.46,1.17,4.66,1.74,8.74,2.74,13.54.56,2.71,2.93,10.33,3.16,13.68-2.58.33-1.91,2.3-3.31,2,1.16-3-1.82-8.53-3.74-10.8-1.68-2-4-2.33-6.05-3.89-2.7,0-5.71,1.26-7.78,2a60.61,60.61,0,0,1-7.92,2.45,17,17,0,0,1-6.19.14c-1.82-.09-3.65-.33-5.47-.43-1.73-.67-4-1.34-5.76-2-1.15.1-2.45-1.24-3.6-1.15a17.47,17.47,0,0,0-5.62-2.45s-3.6-.52-3.6-.57a31.25,31.25,0,0,1,4.47-1.87,27.48,27.48,0,0,0,2.45-1.3c9.27-4.44,16-4.34,21.6-12.67.14-.77,1.15-2,1.35-3.17.62-1,1-2.16,1.53-3.17.19-.67.81-1.49,1-2.16a13.25,13.25,0,0,0,.31-2A13,13,0,0,1,450,30.24a43.46,43.46,0,0,1,6.34-4.9c.72-.46,1-.25,2-.86C459.1,24.32,459.6,24.58,459.65,23.9Z" fill-rule="evenodd"/>
  </g>
  <g class="interactive_g" id="innerair" style="isolation: isolate">
    <path d="M105.41,97.92c1,0,1.53-.34,2.59-.29.34.77-.52,2.47.72,3.46,1.79,1.79,7.75,1.89,10.8,2.59,1.09.25,3.2-.3,4.46,0,3.68.88,4.44,0,9.36.43,1.53.34,3.61,0,5.62,0,2.68.08,11-.24,13.68-.14a15,15,0,0,1,2.16-.15c1.71,0,2.27-.41,4.18-.14,2.69-.76,14.74-.31,17.56-.29,9.49.09,20.64,0,26.07,1.3,3.58.83,8.9.64,11.81,1.58-.12.24-5.91,2.77-8.07,4.47-1.27.58-2,1.53-3.31,1.58-.39.64-1.53,1-2.16,1.44-.57-.06-4.53,3.83-5.62,4.18-.83.26-2.11,2.13-3.16,3.31-.92,1-1.54,1-2.45,2a12.57,12.57,0,0,0-1.87,2.6c-1.3,2.07-2.66.9-2.76,3.84-1.37-.29-2.66,3.8-5.6,6-1.4,2.14.14,2.44-2,4-.47.35-2.59-1.68-6-2.16-.38-.05-.21-.74-3.89-1.15-2.12-.49-5.39-1.14-7.49-1.73-1.63,0-3.12-1-4.75-1-.48-.38-1.25.24-1.73-.14a37,37,0,0,0-4.17-.58,4.25,4.25,0,0,0-2.45-.14c-2.3-.29-3.6-.15-5.9-.43-.79-.09-2.07-.05-2.45-.44l-2,.15a13.29,13.29,0,0,1-2.16-.29c-3,0-4.08.05-7,0-.48.48-1.86-.56-2.74-.43-1.64.52-2.65-.38-3.74-.43-2.31-.11-3-.12-6-.15-2.33,0-6.58-.47-9.51-.57a10.86,10.86,0,0,1-3.74-.44c-.38-.28-1.2,0-1.58-.28a12.31,12.31,0,0,1-3.46-.29,10.13,10.13,0,0,0-3.6,0c-.88.16-2.76.1-3,.14-.75.12-.91-.16-2.16-.14-.68,0-1,.05-2.16,0s-2.4-.29-4.61-.29c-1.8,0-3.62-.14-6.19-.29-.85.12-2.26.24-2.74-.14-1.39.1-1.79-.11-2.45,0a4.77,4.77,0,0,1-2.16-.29c-1-.1-.89.17-2.28.06-3.41.22-14.41-.72-15.12-.85-2.67-.48-1.55-2.55-6.07-2.67-1.05,0-1.64-2.28-4-3.6,2.53-4.31,5.91-2.6,10.8-4.17,1.41-.46,2.85-1.64,4-2,1.9-.61,2.77-.32,4.61-.86,2.33-.69,5.32-2.09,7.49-2.88l4.6-.58,2.6-1.44,3.45-.57c5-1.69,10-5,15-6.63C96.77,100.55,101.81,100.05,105.41,97.92Z" fill-rule="evenodd"/>
    <path d="M295.49,124.42c3,1.58,9.52,3.36,13.25,5.18,7.28,3.55,17.39,7.61,25.2,12,2.35,1.31,10.43,5.25,10.65,5.33.1.37-1.32,9.6-1.87,12.24-.26,1.25-.38,2.69-.58,3.6-.38.48.24,1.68-.14,2.16-.32,1.19,1.05,3.09-.14,3.89-2.53.12-5.24.64-7.35.29a11.92,11.92,0,0,0-3.89.28c-1.85.39-3.21-.52-5.47.15-.57.43-2.3,0-2.88.43l-9.5.29a24.36,24.36,0,0,1-6.91.29c-.79-.1-3.38.38-4.61.28-2.58-.21-2.86,0-5.76.29l-6.91.29c-.58-.29-1.16.43-1.73.14a16.51,16.51,0,0,0-3.17,0,16.8,16.8,0,0,1-5.47,0c1.06-.25-2,.67-1.59,0-.5-1.41,2.77-10.68,3.17-12.24l-.43-3.16s1.7-4.19,1.87-4.76c2.19-7.18,3.72-15.81,8.35-21.45C291.69,126.58,293.52,126.24,295.49,124.42Z" fill-rule="evenodd"/>
  </g>
  <g class="interactive_g" id="lace" style="isolation: isolate">
    <path d="M279.79,15.26c4.88-.66,1.59,2.28,4.9,2.74-1.24.16-2.32-.42-3.6.86-.94,3.55,4.6,5.37,3.31,8.79-1.4,2.9-7.55,4.51-12.38,2.88a41.34,41.34,0,0,1-5.33-2.16c-2.25,1.72-4,.44-6.05,1.73-.24.33-.62.67-.86,1,.62.82,1.53,1.49,2.16,2.31-.59,1.25,3.17,4.66-2.74,8.49a8,8,0,0,1-3.6.29,12.25,12.25,0,0,1-3.74-1,37.91,37.91,0,0,1-6.05-2.44,9.1,9.1,0,0,0-3.46-.72c-1.68,0-1.35,1.67-2.45,2.16s-2.27,0-2.16,1.29c.09,2.91,3.68,3.79,2.45,6.91-.91,1.93-2.33,3.48-4.46,3.75-2.44.3-6.49-1.27-8.93-1.44-2-.14-1.86-2.18-5.18-1.87l.86-.87c.64-1.08,6.13-5.41,7.34-5.9l3.75-1.3c1.13-.78,1-3,1.87-4,2.47-3,7.21-6.79,11.09-8.21,3-1.1,7.63.8,10.94-.29,1.55-.51,7.59-7,9.36-8.49.74-.6,1.89-.38,3-.72,1.79-.54,5.07-2.32,6.62-2.88C277.44,16,278.83,15.41,279.79,15.26Z" fill-rule="evenodd"/>
    <path d="M216.29,51.26c.24.05,1.05,0,1.29,0-.71.31-1.52.75-1.58,1.73a9.42,9.42,0,0,1,1.73,4.61c-3,10.5-13.31,2.57-19.73.86,1.53-2.86,8-5.3,12.24-6.62C212.35,51.18,214.83,52.35,216.29,51.26Z" fill-rule="evenodd"/>
    <path d="M194.4,60.48c-1,.67-2.2,1.43-2.3,2.16a9.24,9.24,0,0,1,2.88,5c-.47,5.83-5.87,7.84-9.36,4.9-.87,0-2.31-.29-3.17-.29-1.8-.55-2.53-1.81-3.75-3-1.13.76-5.69,2.59-6.19,3.46.39,1.54,1.28,5,.72,7.7-.71,3.36-5.16,5.08-9.21,3.68-3.5-1.21-5.55-7.17-8.07-6.34.91-.82,1.54-1.78,2.45-2.59.72-.19,1.73-.24,2.28-1,2.51-1.49,4.39-3.16,7.8-4.23h3.17c.29-.33,1.29-.38,1.58-.72,1-.42,2.56-.55,3.89-1,1.34-1.25,2.69-2.21,4-3.46,2.17-.91,3.25-.92,5.62-1.73.48-.38,1.68-.77,2.16-1.15C190.08,61.73,193.25,60.67,194.4,60.48Z"  fill-rule="evenodd"/>
    <path d="M150.05,79.92a13.26,13.26,0,0,0,5.76-1.87c-7.15,4.85-5,9.09-6.05,12.53-.32,1-1.58,1.78-2.45,2.3-4.46,2.67-8.57-.66-10.65-4.18.37-1.39,2-1.26,2.59-2.3l.86-2.45C142.34,81.31,147,81.44,150.05,79.92Z" fill-rule="evenodd"/>
  </g>
  <g class="interactive_g" id="ineerleater" style="isolation: isolate">
    <path d="M306.43,32.54c1.29-.46,4.08-1.58,5.33-1.58,2.31.75,5.41,4.78,7.2,6.34,4.3,3.74,9.09,6.85,13.39,10.51,1.67,1.41,7.28,6.17,9.07,7.34,1.47.73,2.29,1.29,3.89,2.16,1.23.73,2.19,1.39,3.46,2.16,6.83,4.16,15.48,5.89,23.47,7.92,1.9.27,3.89.77,5.62.87,4.24,1.17,17.87-.45,24.62-2,2.77-.64,10.82-4.06,14.11-3.31,3.58.81,7.13,2.89,10.23,4,2.4.77,4.65,1.25,7.05,2,1.44,0,2.88.52,4.32.57,1-.26,4.51,0,7.06-.43-3.75,1.61-6.53,2.45-6.77,2.74-2.09.44-3.62,1.19-5,1.15a2.41,2.41,0,0,1-2.16.72c-.93.3-4.25,1.43-5.18,1.73-1.11.14-2.07.57-3.17.72-.53.43-1.2.43-1.73.86-.58,0-1.44.43-2,.43a27.6,27.6,0,0,0-5.32,1.44,104.55,104.55,0,0,1-10.23,2.31c-1.92,0-4.15.8-6.19,1.15-5.23,1.12-11.72,1.56-15.41,2.3-1.15,0-3.89.58-5,.58-9.29,1-14.53,3.21-18.43,3-3.76,1.16-8.49.93-11.38,1.3-1.34,0-2.83.29-4.17.29-6.17.72-12.17,1.44-18.43,2-1.54,0-4.23-.14-5.76-.14a89,89,0,0,0-9.8.57c-1.34,0-3.26.72-4.6.72-2.84,0-5.54.24-7.92.15-2.88,0-5.62.43-8.5.43l-16.42.86c-3.72.3-8.78-.08-12.38.87-.58.57-3.11.65-3.74,1-2.73.71-3.76.69-5.91,1.15-1.1.23-1.57-.35-2.88-.15s-4,.7-5.61,1.16c-3.27.89-6.8,1.16-10.08,1.87-1,0-2.21.72-3.17.72-.77.53-1.39.33-2.16.86-.67,0-1.49.82-2.16.87-2,.65-3.61,1.52-5.76,2.3-.77.58-2.26.86-3,1.44-.09-.1-.19,0-.28-.14-.74-.56-.73-.19-1.88-.44-4.22-.88-8.44-.57-12.52-1.44-3.11-.66-6.1-.47-9.65-.72-2.62-.17-6.67-.08-10.08-.43-6.43-.29-39.94,1.15-46.37.87,2.06-1.48,27.17-5.19,34.56-8.64,3.3-1.54,10.88-4.45,11.81-4.9,2.4.1,2.93.19,5.33.29,1.06.18,3,.45,4.46.72s5.21,1.12,7.2.57a32.24,32.24,0,0,0,7.34-2.73c.87-.63,2.59-1.24,3.75-1.87,3-1,5-2,8.21-3,1.45-.48,2.66-1.55,4.32-2a6,6,0,0,1,3.16-.15c1.92.19,3.7.82,5.62,1,2.77.61,9.57,2.31,13.1,1.73,2.58-.42,6.87-3.15,9.08-4.18,3.53-1.64,7-2.92,10.36-4.61,1.59-1,3.46-1.39,5-2.44,3.14-1.48,5.37-2.35,8.5-3.75,2.53-1.12,8.34-3.31,9.65-4.89,1.17-2.94,1.28-7.4,1.73-10.8.76-5.91-1-10.72,1.58-12.82.33-.59.81.71,1.15.29,1-1.2,5.47-4.3,8.5-5.91A55,55,0,0,1,306.43,32.54Z" fill-rule="evenodd"/>
    <path d="M369.94,106.7c.24,0,1.48-.62,1.72-.57l-.14.43c-1.54.65-2.59,1.75-4,2.45s-3.38,1-5,2.45c-11.37,9.6-12.9,13.16-16.85,26.78-.14,0-.5,7.28-1.3,8.35-.26.69-10.21-4.79-11.23-5.61-1.29-1-2.44-.89-4.17-1.73-3-1.49-6.21-3.28-9.36-4.75-2.23-1.05-3.88-1.4-6.2-2.45-2.56-1.17-5.63-2.82-8.2-4-1.76-.83-8.2-2.21-9.22-3.46a38.63,38.63,0,0,1,17.42-9.07c2-.51,4.72-1,6.77-1.59,1.06,0,2.55-.86,3.6-.86,3.4-.94,8.45-.9,12.39-1.73,1.72,0,4.17-.72,5.9-.72,8.18-.76,5.81-1.23,9.22-1.29,5.42-.11,10-1.4,14.54-2C367.61,107,368.68,107.34,369.94,106.7Z" fill-rule="evenodd"/>
  </g>
  <g class="interactive_g" id="outerleather" style="isolation: isolate">
    <path d="M187.06,86.69c1.24-.4,6.28-2.93,6.33-3.31,9.44-3.65,10.54-5.52,20.31-9.22,2.88-1.09,6.91-3,9.79-4.18,15.64-6.44,39.61-17.66,59.9-27.07.39.19.63.67,1,.87,1-.57,1.61-2.7,3-2.88,2.7.85.56,1.59.29,2.59-.58,1.68-.26,3.42-.29,4.75A109.66,109.66,0,0,1,285.7,64.8c-.46,2-11.57,5.93-17.86,8.93-1.67.79-4.07,2-5.62,2.73-3.41,1.68-7.15,3.12-10.65,4.76-2.35,1.09-6,3.41-8.64,4-3.59.82-9.9-1.31-12.82-1.73-1.92-.19-3.69-.67-5.61-.86a5.47,5.47,0,0,0-3.17,0c-1.65.47-3.14,1.55-4.61,2-3.22,1-5.23,2.08-8,3-1.4.76-2,.62-2.8,1.2a35.63,35.63,0,0,1-8.35,3.45c-3.1.88-9.53-1.43-14.26-1.44-1.34-.12-3-.09-3-.14C180.25,88.82,185.13,87.63,187.06,86.69Z" fill-rule="evenodd"/>
    <path d="M208.94,109c1.32-.59,3.16-1.84,4.47-2.16,3.34-.82,4.77-2.22,7.63-3.17,1.61-.54,2.09-.8,3.74-1.44.77-.53,2.12-.62,2.88-1.15,1,0,2.36-.87,3.32-.87,2.07-.42,4.64-.6,6.48-1.15,1.52-.45,9.44-2.39,11.08-1.73.68.28,2-.31,3.46-.57a18.21,18.21,0,0,0,3.46-.58c1.24-.25,2.19-.5,3.31-.72a25.23,25.23,0,0,1,6.05-.86c2.61,0,2.88-.13,5-.15,1,.1,2.08-.15,3-.14,1.48-.21,1-.17,2.3-.29a7.61,7.61,0,0,1,2.31-.14c2,0,2.52-.09,4-.15,2-.07,3.89-.14,5.76-.14,2.51-.54,5.61-.35,9.22-.58,1.53-.19,3.64,0,5.18-.14,2.4,0,4.51-.58,6.91-.58,5.57-1,13.77-.54,20-1a51.55,51.55,0,0,0,5.76-.58c3.82-.46,7.4-.73,12.09-1.3a9.48,9.48,0,0,1,2.88-.14c.46-.16,1.78-.1,2-.29,1.78,0,2.69-.29,4.46-.29.92-.57,2.26,0,3.17-.57,1.29-.36,1.87.08,3.6-.43,6.8-2,15.66-2.5,22.18-3.6,1.2,0,3.41-.44,4.61-.44,2.29-.56,4.61-.94,7.05-1.44,1.49.1,3.84-1,5.33-.86a32.39,32.39,0,0,0,5.76-1.15c1.1.09,2.5-.67,3.6-.58l3.17-.86c1.26-.42,2.73-1.25,3.74-1.15,2-.62,3.32-.89,5-1.59,1-.09,3.31-.91,4.32-1,1.39-.46,2.27-.76,3.75-1.29.89-.23,1.8.15,2-.72l2-.15c.57-.48,1.44-.52,2-1,1.66,0,1.85-.58,3.46-1l4.61-1.73c2.4-.48,4.37-1.39,6.77-1.87,1.61-.57,5.45-2.89,8.06-2,.48.39.82.34,1.3.72a2.75,2.75,0,0,1,2,.72c1.54.84,2.52,2.4,3.6,3.75s4,6.35,3,8.92c-.15.83-7.06,3.27-8.93,4.61-1.3.93-15.17,4.37-22.75,6.77-3.22,1-12.65,4.22-14.84,4-.72-.34-.23-1.09-.72-1.73-1-2-.43-6.51-.86-8.78l-.86-.72c-6.51-.11-24,1.61-24.77,3-.65.74.76,10.39,1,12.1.39,1.31.76,1.68,1.72,2-1.1.14-.78.85-2.3.57-1.25-.19-1.92.48-3.17.29-4.12.61-7,2.18-11.09,2-.28.61-1.15.48-3.88,1.15a62.47,62.47,0,0,1-8.36,2c-3.47.74-7.36.76-10.08,1.59-4,1.23-8.85.55-12.81,1.73l-6.91.86c-1.35,0-2.84.43-4.18.43-3.92,1.11-7.35.58-10.94,1.59-1.06,0-4,1-5,1-4.3,1.23-9.28,2-13.68,3.6a27.64,27.64,0,0,0-4.76,2.74,59.27,59.27,0,0,0-10.36,7.63,8.67,8.67,0,0,0-2,2.45,15,15,0,0,0-1.58,2.45c-2.18,4-4.13,10.25-5.62,15.41-.48,1-.67,2.06-1.15,3-.71,2.47-.61,2.23-1.15,4.18-.44,1.69.12,1.84-.15,2.88.29.28-.72,1.58-.43,1.87-.74,3.28-.77,4.47-1.58,7.63a35.91,35.91,0,0,1-1.3,3.89,24.91,24.91,0,0,0-4,.29c-.87.38-2.16.19-3,.57-1.92,0-3.69.29-5.61.29-4.61.48-8.35.53-13,1-1.83.09-3.36.33-5.19.43-.48-.19-1.68.19-2.16,0-.67.29-1.34,0-2,.29-2.59.09-5.19.48-7.78.57-2.2.42-12.15,1.54-12.38.87-.42-1.24-7.86-8.9-8.93-10.66a14,14,0,0,0-4-2.73c-2.07-1.92-3.19-2.66-4.47-4.61a17.51,17.51,0,0,0-4.17-4c-1.71-1.05-2.88-2.58-4.47-3.6-3.33-2.16-6.25-4.78-9.79-6.34-1.88-.83-4.44,0-5-.86-.34-.26-.67-2.21-1.53-2-.52-.92-1.16-.93-1.64-1.63.9-.36,1-1.08,1.44-1.88-.25-.75.1-.35.29-1.15-.57,0,1.3-1.25.72-1.29-.09-.2.41-.06,1.19-.85.51-.7,1.46-1.83,2.12-2.9.91-1.34,1.54-1.47,2.16-2.59-.52-1,1.55-2.09,2.88-3.46,1.6-2.74,1.71-2.11,4-4.17-.24-.48,1.68-1.25,1.44-1.73,1.14-.83,1.44-1.89,3.16-2.16.48-1,.73-1,1.59-1.58a8.47,8.47,0,0,1,3.6-2.31c.11-.84,2-1.28,2.45-1.73C207,110.13,205.39,111.26,208.94,109Z" fill-rule="evenodd"/>
  </g>
  <g class="interactive_g" id="cap" style="isolation: isolate">
    <path d="M186.19,87.26c-3.73,1.39-5.62,1.52-5.9,3.75-.67.14-1.06.72-1.73.86-1.89.71-4.92,1.86-6.91,2.59-4.59,1.69-6.67,2.63-11.38,4.18-.48.38-3.26.62-3.74,1-.47.15-3.46.86-3.46.86-.92-.28-2.38.34-4.32.72-1.63.48-2.25.24-3.89.72-1.81.11-1.27.47-4.32.72-4,.33-3.28.94-6.48,1.44-2.68.1-5.23-.24-7.92-.14-1-.2-3.48-.71-4.89-.29-.67.48-2.12-.15-4-.58-4.34-.51-6.63-.45-9.22-2.59l.14-2.59c1.24-2.69,4-2.45,7.35-3.17,4.25-.92,9.23-1.68,13.53-2.59.77,0,1.83-.58,2.6-.58,1.85-.58,3.29-1.73,5.61-2,2.82,2.82,5.63,5.81,10.23,3,.86-.52,2-1,2.3-2a18.62,18.62,0,0,1,1.44-7.78c1.12-.75.9-2.46,2.59-3l2.59-2h.87c1.67.49,3.78,5.71,7.34,6.48,7.26,1.57,10.74-3.46,7.78-11.52,1.16-1.55,4.69-2,6.19-3.6,1.86,1.27,1.81,2.47,4,3.17.87,0,2,.14,2.88.14A5.78,5.78,0,0,0,195,67.68c-.35-2.42-1.86-3.5-2.88-5.18l.14-.44c.63-1.24,2-1.47,3.31-2,1-.53,1.06-.77,2-1.3,4.08-1.09,11.24,6.61,17.28,3.31,1.09-.59,3.58-3.67,2.88-5.9-.33-1-1.83-2.58-1.59-3.74.71-1.48,4.24-2.11,5.76-3.75,2.81,0,3.08,1.51,5,2.16.87.05,1.88.24,2.74.29,6.25,1.89,7.46,1.37,10.22-2.16,1.34-3.5-1.94-4.84-2.3-7.63.8-1.54,1.38-.35,2.74-1.3.28-.53.57-1.05.86-1.58,3-2.56,11.92,5.53,17.57,3.45a6.24,6.24,0,0,0,2.16-1,6.88,6.88,0,0,0,1.58-3.32c.3-1.77-.68-2.66-.57-4-.44-.77-1.59-1.53-2-2.3l.29-.58c1.17-1.6,4.44-.76,6.19-2.16.74-.59,8,4.37,14.11,2,1.35-1.25,3.68-1.06,4-3.75-.15-4.06-3.35-2.87-3.6-7.92.15,0,.87-.67,1-.72,1.38-.43,1.52.17,3.46-.28,1.27-.3,2.56-1.57,4.75-.87,1.36.44,4.47,1.38,5.62,1.87C300,20.68,312.21,29.8,311.9,30.67S304,32.58,298.66,36c-2.66,1.71-7.06,4.07-8.93,6.19-.86-.41-1.4-1.17-2.59-1.29-.72.57-2,2.3-2.74,2.88-.38-.2-.62-.68-1-.87-19.26,9.48-39.86,18.52-59.47,26.79-2.83,1.19-6.62,3.09-9.5,4.17-7.31,2.74-13.12,6-19.88,9.07-1.23.56-3.14,1.79-5.47,2.88C188.35,86.24,186.24,87,186.19,87.26Z" fill-rule="evenodd"/>
    <path d="M472.61,77.76l1.15.14c1.82.86,1.26,7.17,1.73,9.65.71,3.78.29,9,.29,13.25q.14,9.8.28,19.58c0,17,.93,35.25-8.06,43.2a10.39,10.39,0,0,1-3.46,1.44c-2.07.61-4.69.39-7.2.87-3.84,0-7.39.86-11.23.86-1.17.22-2.66,0-3.45.29-3.56,0-7.11.72-10.66.72,0-6.35.93-13.95-.14-19.44-2.72-1.83-13.18-.86-17.72-.86H390.82c-3.91,0-8.68-.36-12.1.28-4.41.84-9.8-.13-13.54.58-3.55.68-11.87-1.08-14,.72-2.52,1.54-.43,15.16-1.16,19.44-.14.05-.57.1-.72.14-.8.34-6.72.2-7.2,0-.33-.24.2-1.2-.14-1.44-.1-1.15.1-1.72,0-2.88.34-.43-.19-1.29.43-3.07-.38-1.58.53-2,.29-4.27.43-.62,0-1.39.43-2-.19-.57.48-1.44.29-2,.77-1.15.24-3,1-4.18a43.78,43.78,0,0,1,2.3-14c3.31-9.88,3.44-12.88,12.67-20.73l3.75-3.17a20.57,20.57,0,0,1,3.45-1.44c1.05-.31,3.65-2.48,5.76-3.31,3-.35,6.26-2,9.08-1.87.43-.44.86-.29,1.29-.72l2.59-.15c2.52-.81,5.61-1.3,8.21-2,2,.19,3.72-.54,6.19-.58a169.59,169.59,0,0,0,16.85-4.32c1.94-.63,4.62-.63,6.91-1.58,1.22-.51,2.82-.45,4.18-.87,2.14-.66,3.13-1.16,5.47-1.87,8.33-2.53,17.15-5,25.63-7.49,4.47-1.3,7.4-4.48,12.1-5l.29-1.29Z"  fill-rule="evenodd"/>
    <path d="M179.86,141.41c0,.33.81,1.68.86,2,5.93.45,4.13-.16,8.5,2.45,1.15.43,5.47,4,6.62,4.47,1.25,1,1.92,2,3.17,3,.62,0,2.54,2.11,3.17,2.16,0,.77,1.53,1.1,1.58,1.87.62.72,1.25,1.87,1.87,2.59,0,.05,1.87,1.4,1.87,1.44,1.75,2.23,1.84.85,3.89,2.74,1.71,1.57,10,10.77,9.79,11.81-1.4.74-6.87.84-8.64,1-2.59.23-6.81.74-9.64,1.29-3.65,0-7,.15-10.66.15a19,19,0,0,1-4.3.05c-2.13-.09-3.7.24-4.92.09-6,0-12,.58-18,.58-3.12,0-6.38-.29-9.5-.29-3.69.07-8.15-.28-11.23-.43-3.91-.2-8.5-.22-12.67-.72-1.73,0-4-.15-5.76-.15-3.25-.22-6.23-.47-9.65-.72-2.38-.17-4.83-.56-7.63-.57-1-.3-3.31-.13-4-.44-5.86-.09-9.41-1-15.12-1.29-1.72,0-4-.15-5.76-.15-5.09-1-11.77-.67-16.7-1.72-2.4-.1-6.82-.63-9.22-.72-6-1.21-12.11-1.12-17.56-2.6-1.64-.09-3.27-.76-4.9-.86-4.21-.88-14.32-3.78-17.42-7.78s-2.1-12.13-2.6-17c.19-1.51.48-4.31-.28-4.89.81-.92,1.63-1.54,2.44-2.45a27.26,27.26,0,0,1,7.78-7.06,15.61,15.61,0,0,1,3.41-1.82,5.37,5.37,0,0,0,1.92-1.2l2.88-.72c1.79-1.11,5.36-4.06,6.48-4.32.94-.23,2.69,2.64,4,3.45l2.3.15c1.08.34,1.8,1.75,3.17,2.16,3.58,1.08,6.74.58,10.37,1,1.15.19,3.31-.05,4.53.13a35.08,35.08,0,0,1,5.41.15c6.72.19,10,.55,13.68.72.76.2,4.12.1,4.89.29.29-.29,2.59.15,2.88-.14.72.19,1.44-.19,2.16,0,.48-.24,1.39.09,1.87-.15a39.37,39.37,0,0,0,5.19.44c2.25.15,3.47.94,5.47.57,1.06-.19,2.83.48,3.89.29,2.21.48,3.69.1,5.9.58a16.5,16.5,0,0,1,7.06.43c.53.33,2.06-.19,2.59.14a9.73,9.73,0,0,0,4.18.15c2.38-.57,3.88-.05,5.9.28,1.06,0,2,0,3,0,.39.39,3.08,0,3.46.44,2.35.33,2.69.09,5,.43.38-.34,3.07.33,3.46,0,0,0,5.93,1,6,1,1.1.34,2.89.76,4.18,1.15,1.34.09,2.54.48,3.89.57.29.48,2,.24,2.3.72,1.93.37,2.53.16,4.75,1.3.82.1,2.07.62,2.88.72A16.45,16.45,0,0,1,179.86,141.41Z" fill-rule="evenodd"/>
  </g>
  <g class="interactive_g" id="outsole" style="isolation: isolate">
    <path d="M168.34,207.36c4.43-.26,10.48-.22,14.83-.29,5-.08,13.28-.24,17.57-.29,4,0,8.36,0,13,0,6.51-.05,13.85-.22,20-.57,2.74,0,5.47-.43,8.21-.43,7.14,0,14.87-.22,22.18-.44,13.24-.09,26.49-.48,39.74-.57,5-.23,11.36.41,16.85,0,9.3-.7,24.43-.36,28.37-.58,7.91-.44,17.45-.2,25.34,0,4.6.12,9.57,0,13.68.29h9.5c7,0,13-.28,20.74-.43h8.78c4.85-.1,8.4-.34,13.25-.43,1.76-.07,4.91.23,6.91-.15,13.89-2.65,18.57-8.59,22.61-21.17.37-1.15,1.66-2.08,2-3.45.14-1.92.57-3.7.72-5.62.1-.88.29-4.17.57-4.17.42,2.72,1.06,16.95-.14,19.58-1.11,2.43-1.38,2.51-3.6,3.46-1.28.54-3.18,5.42-3.89,6.19,0,1.15.15,1.87.15,3a5.43,5.43,0,0,1-5.76,3.46c-.79-.17-.76-.84-1.73-1a14.07,14.07,0,0,1-3.46,2s-4.72,3-4.75,3c-.19,1.06-.1,2.26-.29,3.31-.48.87-1.72.78-2.59,1.3-.58.53-1,.91-1.58,1.44-.93.29-3.2-.19-3.57-1.1-.16-.41-2.43-1.18-2.77-1.49-.94-.88-.95-2.3-2-3H430a10.73,10.73,0,0,1-1.72,3.89c-.46.68-1.59.24-2.31.43-.48.36-.28,1.07-.86,1.44-4.07.34-3.48-1.26-4-1.29-2.11-.15-3.46-3.19-3.24-4.07-3.56-.06-7.23-.16-10.3-.11-.53,1.15-.77,2.3-1.3,3.46-.79,1.07-1.41.31-2.44.72-.48.48-.32,1.63-1.44,1.58-3.37.17-2.71-1.08-3.32-1.15-3-.35-3.31-3.49-3.31-4.32-3.55.05-7.68-.34-11.23-.29l-1,2.88c-.28,1.09-2.36.93-2.45,1.73-.1,1-2.79,1-3.74.72l-1.15-1.3-1.87-.57c-1.35-.78-1.05-3.8-1.59-3.89-1.42-.25-8,.19-8.64,0-1,.68-.72,1.5-1.15,2.59-.81,2.07-1.76.78-2.74,1.73-.3,2-3.12,1.34-3.88,1.29-.72-.37-.61-1-1.16-1.44s-1.52-.18-2-.57c0,0-.24-.58-.29-.58-.63-1.06-.78-2-1.44-3-2.52,0-7.07.08-9.22,0-.95,1.16-1,4.55-4,4.46-1.1,0-.08,1.29-1.73,1.3-4,0-2.06-1-3.31-1.15-3.74-.33-2.81-3.94-3.74-4.47-2.27-.2-6.36.11-8.64.15a6,6,0,0,1-4.18,5.47c-3.27.07-5.34-3-5.9-5.33a78.86,78.86,0,0,0-8.79.29c-.16,3.23-2.33,4.19-4,5.18h-2.16c-1.81-1.3-3.17-2.64-3.45-4.89-2.65.09-6.85-.2-8.64,0,0,1.86-1.17,4-2.88,3.88.12,1.83-2.1,1.6-3,1.3a3.1,3.1,0,0,1-.57-1.3c-.35-.87-1.52.52-2-1-.05,0-1-2.84-1-2.88-2.44-.09-5.06-.55-8.06,0-.43,1-.72,2.2-1.15,3.16l-3,2.16c-3.76,0-4.77-3-5.27-5.19-4.16.26-7.63-.06-9.7.3-1.26.21-.43,3.33-1.59,3.45a3.19,3.19,0,0,0-2,.72c-.42.3-.51.84-1,1.16-3.83,1.57-7-3.25-7.63-4.61-2.17,0-8.22.22-10.8.29-.49,1.21-.52,3.92-2.88,4-.56,0-1.35,1.7-2.6,1.73-3,0-1.65-1.14-3.12-1.26-2.94-.77-3-3-3.79-4.22-3.17,0-6,.29-9.21.29-.56,1.46-.54,3.83-2.45,4-2.36.53-1,1.63-3.75,1.73-2.12.09-2.4-1.14-4.32-1.58-1.11-.26-1.54-3.18-2.16-4l-8.92.14c-.49,1.21-.48,4.51-2.88,4.46-.72,0-1.84,1.44-3.17,1.44-3.24,0-1.85-1.35-4.18-1.58-1.47-.35-2.35-4.26-2.45-4.32l-8.49-.14c-.78.29-.46,1.05-.87,1.72-1,1.73-.63,3.08-2.88,3.32-.94.09-.92,1.69-3.31,1.58-1.9-.18-1.45-1.32-2.59-1.44-3.62-.54-1.73-3.86-3.46-5l-9.36-.14c-1.1,1.2-2.64,4.41-4.75,3.74-.84,3.27-5.37-.07-6.48-1-.94-.8-.46-2.83-1.44-3.45-1.18-.76-7.25-1.47-9.07-1.16-.8,1.73-4,5.52-6.77,4.32a17.77,17.77,0,0,1-2.45-1.44c-2.38-1.86-2.06-1.23-2.73-5a15.82,15.82,0,0,0-8.21-1c-.43,2.38-5,4.5-7.49,3.45-1.29-1.1-2.3-1.92-3.6-3-.8-1.48.78-3.32-1.87-3.75-.62-.1-6.26-1-6.62-.86-1.61.51-5.11,3.75-7.78,2.45-2.47-1.21-4.1-6-4.75-7.35A29.13,29.13,0,0,0,56.3,196c-2.17.51-5.55,1.8-7.2,1.3s-3.17-5.81-4.75-6.91a32.44,32.44,0,0,0-5.61-2.74,43.47,43.47,0,0,0-4.32-2.16,4.65,4.65,0,0,1-3.32.43c-1.1-1.24-1.92-2.49-3-3.74a43.25,43.25,0,0,0-4-3.17c-2-1.56-4.06-4.13-5.91-4.89-1.57-.65-2.7-2-3.31-4.9.29-.34.43-1,.72-1.3l1.15.15c1.28,1.8,6,7.41,10.52,10.08A192.51,192.51,0,0,0,56.74,192c4,1.51,6.13,2.06,10.22,3.6.53.43,2.64.87,3.17,1.3.81.09,1.92.48,2.73.57,1.23.61,3.83,1,5.33,1.44a54.59,54.59,0,0,0,7.63,1.88c3.86.78,8.28,1.84,12.1,2.59a109.21,109.21,0,0,0,11.81,1.29c10,.81,21.48,1.9,30.53,2.16,3.91.12,9.38,1,13.53.87,1.69,0,3.45-.07,5.19,0,2.58,0,2,0,4.75,0Z" fill-rule="evenodd"/>
  </g>
  <g class="interactive_g" id="midsole" style="isolation: isolate">
    <path d="M12.24,141.26c.49-1.87,1.63-2.35,2.3-2.3,1.58.2.66,2.74.87,3.89.39,7.92-.88,13.3,2.3,17.57,7.64,10.22,57.29,12.85,79.2,14.83s46.22,3.17,71.57,3.17l34.27-.87c21.53-2.5,43.42-3.37,67.68-5.61,2.9-.41,7.4-.25,9.94-.44,13.08-.51,25.81-.76,35-1.15a101.29,101.29,0,0,0,10.8-1c3.6-.55,8.3-.07,10.94-.28,2.84-.23,8.8-.52,12.53-.44,1.15,2.72-.31,6.89,1.15,6.77,26.07-.29,52.57-.72,78.63-1,3.52.12,2.15-3.8,2.73-6.62,4.71-.34,29.13-1.73,31.68-2.59,1.63-.31,3.75-.91,3.46-1.3,8.48.68,5,7.73,4.9,15,0,.45-1.73,2.1-2.31,3.74-5.4,20.95-22.13,21.42-25.05,21.75-36.23.2-60.27.75-68.4,0-13.08-.24-60.1,1.09-72.15.72-12.66.09-69.66,1.18-81.36,1.72-11.15.53-44.32.86-47.23,1-27.46,1.47-69-2.32-77.33-4.17-29.1-5.42-45-11.85-64.08-21.6-8.51-3.3-16.58-12.19-18.14-14.55a41.1,41.1,0,0,1-3-10.22C12.46,152.65,11.65,146.83,12.24,141.26Z" fill-rule="evenodd"/>
  </g>
  <g id="shadow_image" data-name="shadow Image">
    <image id="shadow_Image-2" data-name="shadow Image" width="3333" height="1583" transform="scale(0.144)" xlink:href="shoe1.png"/>
  </g>
</svg>
